<svg width="976" height="1394" viewBox="0 0 976 1394" fill="none" xmlns="http://www.w3.org/2000/svg">
<path d="M747.586 446.592C736.009 457.572 716.838 473.497 716.838 473.497C716.838 473.497 708.871 478.051 703.385 480.082C697.456 483.045 687.578 484.033 687.578 484.033C687.578 484.033 677.095 460.238 670.716 452.357C664.337 444.477 651.498 433.139 651.498 433.139L703.385 398.546C703.385 398.546 733.58 377.316 749.507 360.109C762.253 346.34 771.122 338.994 778.333 321.672C781.345 314.439 782.722 310.168 784.099 302.454C786.208 290.632 786.45 283.481 784.099 271.705C781.533 258.851 770.647 240.955 770.647 240.955C770.647 240.955 797.55 262.356 807.16 281.314C812.525 291.898 815.129 298.388 816.768 310.141C818.013 319.061 817.578 324.234 816.768 333.203C815.378 348.613 813.145 357.372 807.16 371.64C800.635 387.193 794.325 394.743 784.099 408.155C771.545 424.619 762.607 432.344 747.586 446.592Z" fill="url(#paint0_linear_234_36)"/>
<path d="M548.609 403.493C542.531 404.658 533.235 407.336 533.235 407.336C533.235 407.336 605.943 321.703 640.853 259.355C657.58 229.482 670.326 212.312 683.131 180.56C692.63 157.007 695.736 144.02 700.427 119.061C703.214 104.235 703.453 95.6875 704.271 80.6244C705.247 62.6383 704.271 34.5004 704.271 34.5004C704.271 34.5004 714.894 62.2414 719.645 80.6244C723.475 95.4452 725.121 103.914 727.332 119.061C730.807 142.872 731.546 156.499 731.175 180.56C730.803 204.679 729.913 218.361 725.41 242.058C720.887 265.859 716.43 278.881 708.114 301.635C698.775 327.188 692.047 341.028 679.288 365.056C666.491 389.157 642.775 424.633 642.775 424.633C642.775 424.633 624.29 409.351 602.418 403.493C582.12 398.056 569.247 399.534 548.609 403.493Z" fill="url(#paint1_linear_234_36)"/>
<path d="M377.467 384.42C397.686 410.925 421.667 457.45 421.667 457.45C421.667 457.45 433.455 456.383 440.884 457.45C448.64 458.563 459.402 461.313 459.402 461.313C459.402 461.313 462.626 452.693 465.867 447.841C472.378 438.092 488.928 428.622 488.928 428.622C488.928 428.622 502.903 420.935 504.302 419.013C506.223 416.374 495.127 394.894 487.006 380.576C475.898 360.992 452.415 334.452 452.415 334.452L417.823 296.016C417.823 296.016 389.987 270.579 369.78 257.579C348.61 243.96 312.127 228.751 312.127 228.751C312.127 228.751 277.912 214.926 260.24 199.924C247.269 188.912 240.954 181.342 231.414 167.253C223.32 155.299 214.118 134.582 214.118 134.582C214.118 134.582 206.532 174.638 210.275 199.924C212.675 216.139 214.561 225.579 221.805 240.282C230.767 258.472 239.979 266.462 254.475 280.641C277.688 303.347 298.97 305.672 323.658 326.765C347.073 346.771 358.787 359.933 377.467 384.42Z" fill="url(#paint2_linear_234_36)"/>
<path d="M503.033 374.758C510.669 387.416 518.407 409.351 518.407 409.351C518.407 409.351 529.882 385.122 535.702 368.992C543.366 347.755 545.342 335.097 551.076 313.259C556.578 292.308 560.368 280.706 564.529 259.448C570.77 227.563 572.723 209.268 574.137 176.809C575.772 139.288 576.546 117.749 570.294 80.717C564.836 48.3912 547.233 0 547.233 0C547.233 0 524.37 35.0197 503.033 49.9677C484.308 63.0856 449.224 73.0297 449.224 73.0297C449.224 73.0297 475.455 113.447 485.737 142.216C495.546 169.66 498.048 186.262 501.111 215.245C504.266 245.1 504.658 262.308 501.111 292.119C498.206 316.531 488.982 351.592 488.982 351.592C488.982 351.592 497.76 366.017 503.033 374.758Z" fill="url(#paint3_linear_234_36)"/>
<path d="M296.73 431.609C314.524 456.02 327.478 495.03 327.478 495.03C354.382 475.812 366.739 466.018 403.252 460.252C403.252 460.252 369.926 420.371 342.852 398.938C319.182 380.201 306.244 368.612 279.434 354.736C257.278 343.269 219.86 331.674 219.86 331.674C219.86 331.674 195.408 325.202 179.504 325.908C160.039 326.773 131.46 339.361 131.46 339.361C131.46 339.361 165.967 342.861 187.191 348.97C227.244 360.501 244.549 373.268 271.747 400.86C282.609 411.879 287.548 419.013 296.73 431.609Z" fill="url(#paint4_linear_234_36)"/>
<path d="M145.603 597.56C119.922 607.438 82.3863 608.426 39.9119 657.817C16.2047 692.391 19.627 729.797 20.4953 743.757C23.4452 791.184 46.6488 799.303 52.7555 816.856C52.7558 826.539 16.4296 844.319 7.31559 877.114C-4.10166 918.197 -5.52543 963.054 28.0587 1003.55C54.9872 1036.03 108.111 1042.08 113.996 1049.98C119.881 1057.89 99.1013 1106.29 135.727 1155.68C159.384 1187.58 206.847 1202.11 217.712 1202.11C231.541 1214.95 211.786 1245.57 259.199 1298.91C319.453 1349.29 367.854 1320.65 383.66 1325.59C389.493 1333.75 411.317 1365.1 448.852 1385.84C469.595 1397.31 517.996 1396.12 530.838 1385.84C547.63 1381.89 580.226 1342.38 592.08 1342.38C602.945 1339.41 644.432 1377.94 717.527 1324.6C788.647 1252.49 743.21 1222.85 757.039 1207.05C766.916 1198.16 817.293 1193.22 847.914 1158.64C888.269 1107.28 867.669 1061.84 871.621 1049.98C878.535 1042.08 927.541 1036.15 954.594 996.64C979.19 944.314 981.811 917.567 966.447 874.15C956.59 846.294 923.892 827.668 921.009 816.856C918.046 792.161 978.301 769.441 937.802 670.659C879.523 579.779 819.268 613.365 800.501 602.499C793.586 585.706 795.562 563.974 764.941 528.412C718.515 486.924 675.646 498.778 666.163 486.924C654.31 472.106 630.603 427.654 572.324 424.691C497.253 424.691 477.498 480.009 462.681 480.009C448.852 478.033 422.979 472.984 397.488 478.033C367.244 484.023 328.344 517.546 328.344 517.546C328.344 517.546 290.807 480.009 208.821 505.692C142.64 542.242 152.518 580.767 145.603 597.56Z" fill="url(#paint5_linear_234_36)"/>
<defs>
<linearGradient id="paint0_linear_234_36" x1="430.91" y1="213.297" x2="475.811" y2="481.984" gradientUnits="userSpaceOnUse">
<stop stop-color="#19763D"/>
<stop offset="1" stop-color="#37D45F"/>
</linearGradient>
<linearGradient id="paint1_linear_234_36" x1="430.91" y1="213.297" x2="475.811" y2="481.984" gradientUnits="userSpaceOnUse">
<stop stop-color="#19763D"/>
<stop offset="1" stop-color="#37D45F"/>
</linearGradient>
<linearGradient id="paint2_linear_234_36" x1="430.91" y1="213.297" x2="475.811" y2="481.984" gradientUnits="userSpaceOnUse">
<stop stop-color="#19763D"/>
<stop offset="1" stop-color="#37D45F"/>
</linearGradient>
<linearGradient id="paint3_linear_234_36" x1="430.91" y1="213.297" x2="475.811" y2="481.984" gradientUnits="userSpaceOnUse">
<stop stop-color="#19763D"/>
<stop offset="1" stop-color="#37D45F"/>
</linearGradient>
<linearGradient id="paint4_linear_234_36" x1="430.91" y1="213.297" x2="475.811" y2="481.984" gradientUnits="userSpaceOnUse">
<stop stop-color="#19763D"/>
<stop offset="1" stop-color="#37D45F"/>
</linearGradient>
<linearGradient id="paint5_linear_234_36" x1="48.4011" y1="637.073" x2="975.946" y2="1184.29" gradientUnits="userSpaceOnUse">
<stop stop-color="#5C2160"/>
<stop offset="1" stop-color="#C7307D"/>
</linearGradient>
</defs>
</svg>
